<svg width="250" height="250" viewBox="0 0 250 250" fill="none" xmlns="http://www.w3.org/2000/svg">
<rect width="250" height="250" rx="125" fill="white"/>
<path d="M120.094 22.8063C121.465 20.409 124.519 19.5766 126.917 20.9472L208.081 67.3494C212.875 70.0905 214.54 76.1994 211.799 80.994L209.222 85.5017C206.481 90.2963 200.372 91.961 195.577 89.2199L110.072 40.3361L120.094 22.8063Z" fill="#4361EE"/>
<path d="M36.4591 74.7036C35.101 72.2992 35.9491 69.2491 38.3535 67.891L120.583 21.4427C123.949 19.5413 128.219 20.7286 130.12 24.0947L139.321 40.3827L46.6432 92.7329L36.4591 74.7036Z" fill="#4361EE"/>
<path d="M45.1893 97.362C46.5384 94.9526 49.5853 94.0931 51.9947 95.4422L167.289 160L143.289 174.999L35.7892 114.149L45.1893 97.362Z" fill="#4361EE"/>
<path d="M35.7892 71.9998H59.7892V114L35.7892 114.144V71.9998Z" fill="#4361EE"/>
<path d="M130.668 227.843C129.297 230.241 126.243 231.073 123.845 229.702L42.6814 183.3C37.8868 180.559 36.2221 174.45 38.9632 169.656L41.5403 165.148C44.2814 160.353 50.3904 158.689 55.1849 161.43L140.69 210.314L130.668 227.843Z" fill="#4361EE"/>
<path d="M214.303 175.946C215.661 178.351 214.813 181.401 212.409 182.759L130.179 229.207C126.813 231.109 122.543 229.921 120.642 226.555L111.441 210.267L204.119 157.917L214.303 175.946Z" fill="#4361EE"/>
<path d="M205.573 153.288C204.224 155.697 201.177 156.557 198.767 155.207L83.4728 90.6499L107.473 75.6502L214.973 136.501L205.573 153.288Z" fill="#4361EE"/>
<path d="M214.973 178.65H190.973V136.65L214.973 136.505V178.65Z" fill="#4361EE"/>
</svg>
